<?xml version="1.0" encoding="UTF-8"?>
<svg width="892px" height="366px" viewBox="0 0 892 366" version="1.1" xmlns="http://www.w3.org/2000/svg" xmlns:xlink="http://www.w3.org/1999/xlink">
    <title>background-mountains</title>
    <g id="Welcome" stroke="none" stroke-width="1" fill="none" fill-rule="evenodd">
        <g id="background-mountains" fill-rule="nonzero">
            <path d="M892,366 L50,366 L12,366 L46.337502,265.622666 L86.0540362,280.935635 L115.667863,230.50298 L128.703614,237.862673 L148.59022,248.368718 L180.081479,220.080693 L189.24547,210.186438 L199.801595,205.68905 L228.048085,177.033222 L239.9007,188.908512 L245.93682,201.825302 L262.695554,204.01391 L275.483343,221.089418 L304.165538,207.491647 L312.330595,183.380548 L325.614309,172.615949 L335.826828,157.790956 L361.859366,140.354928 L366.156204,131.94645 L388.951058,156.046625 L409.376097,166.512611 L422.854639,178.11478 L438.997008,166.512611 L451.310126,157.790956 L466.577541,165.642267 L477.813792,179.585991 L497.222184,171.741963 L503.350404,160.405632 L530.930937,155.17628 L547.275219,139.484583 C547.275219,139.484583 568.352046,125.97421 570.02048,124.670514 C570.084242,124.619531 570.183427,124.59404 570.307408,124.59404 C573.406942,124.59404 594.264144,139.484583 594.264144,139.484583 L611.058301,153.373683 L619.481947,166.505328 L633.024251,177.033222 L637.289209,175.667619 L657.140391,165.172499 L687.225347,183.380548 L706.633739,201.825302 L738.298571,221.089418 L764.848288,231.901358 L781.19257,241.591682 L825.120927,215.372091 L841.468751,228.511019 L875.453806,301.911308 L892,366 L0,0" id="Fill-140" fill="#6DA387"></path>
            <path d="M114.891822,230.983338 L106.460735,261.495028 L114.891822,287.761613 L90.1417014,320.330434 L123.791499,312.977825 L148.261175,272.616621 L149.993541,246.844329 L190.576354,206.32684 L229.597198,177 L238.26613,185.657397 L226.771452,187.947136 L199.238186,220.515957 L188.023954,232.077325 L188.023954,239.655273 L171.71557,255.490822 L188.023954,260.441021 L163.128286,277.443247 L159.475407,296.175498 L150.298835,300.373354 L132.968071,320.330434 L127.87037,355 L119.716178,339.24441 L100.340654,337.140031 L90.1417014,328.73705 C90.1417014,328.73705 80.9686792,337.140031 76.8933582,341.34879 C72.8073874,345.546646 61.5967048,346.418928 61.5967048,346.418928 L50.6948661,346.418928 L63.6308153,337.140031 L68.7320664,327.686677 L73.8297676,323.488821 L59.5519444,328.73705 L18,346.916856 L46.1935534,265.416662 L71.0714711,275.604186 L114.891822,230.983338 L337,232.920531" id="Fill-141" fill="#DAE4E5"></path>
            <polygon id="Fill-142" fill="#DAE4E5" points="268.524175 252.315228 250.166747 262.082315 242 284.053712 247.109543 284.053712 254.24302 295.432277 259.814162 295.432277 259.814162 279.219277 270.562311 272.293194 277.624772 255.465432 288.916188 279.219277 283.824399 295.432277 288.916188 298.586119 300.136589 298.586119 309.318854 307 320.532153 284.053712 341.950335 289.117319 357.250559 279.219277 379.691361 262.082315 396 237.590027 396 187.114014 384.786701 192.374054 376.627055 177.65249 376.627055 171.071984 366.425722 158.583936 369.486477 152.418122 367.782112 132 350.106431 145.051883 337.870513 157.219818 327.676281 172.959924 319.005326 177.037728 313.828318 183.378149 302.174725 209.201817 276.896867 221.046001"></polygon>
            <polyline id="Fill-143" fill="#DAE4E5" points="423.467734 177.609194 423.467734 211.204881 407 233.320342 407 256.481115 415.233867 283 435.468083 245.124724 427.336873 245.124724 435.468083 230.304597 451.7836 238.583326 451.7836 217.243655 468 217.243655 451.7836 184.689638 445.631209 177.609194 449.971158 169.876796 451.7836 156 423.467734 177.609194"></polyline>
            <polygon id="Fill-144" fill="#DAE4E5" points="484.05 232.412527 495.159297 255.487028 495.159297 272.266834 519.407033 269.650998 526.47211 284 548.69422 269.650998 544.653517 246.275368 556.77211 240.800616 562.834923 246.275368 573.940703 232.292801 545.66633 200.949937 548.69422 163.192653 545.66633 157.496589 580 157.496589 572.93844 141.094102 570.613893 125 544.769568 141.094102 531.52211 154.721118 504.246483 160.261175 498.190703 172.270074 479 180.585602"></polygon>
            <polyline id="Fill-145" fill="#DAE4E5" points="634.134102 178.605402 624 209.114551 629.070602 229.820306 651.536777 270.649582 674.990085 280.212803 674.990085 303.811542 693.344386 303.811542 701.50777 308 714.759511 303.811542 772.897441 303.811542 778 280.212803 748.417939 270.649582 736.185289 238.568397 689.260918 228.048127 674.990085 213.321203 680.085543 209.114551 661.731243 195.435652 665.814711 178.605402 658.223011 166 634.134102 178.605402"></polyline>
            <polyline id="Fill-146" fill="#DAE4E5" points="785.050877 241.990802 824.698127 279.919283 854 285 841.980534 275.068348 819.530748 257.885823 811.482377 241.990802 824.698127 231.767364 827.175638 216 782 241.990802"></polyline>
        </g>
    </g>
</svg>