<?xml version="1.0" encoding="UTF-8"?>
<svg width="28px" height="8px" viewBox="0 0 28 8" version="1.1" xmlns="http://www.w3.org/2000/svg" xmlns:xlink="http://www.w3.org/1999/xlink">
    <title>github</title>
    <g id="Welcome" stroke="none" stroke-width="1" fill="none" fill-rule="evenodd">
        <g id="github" fill="#FFFFFF" fill-rule="nonzero">
            <path d="M5.39744624,3.24364947 L3.0425662,3.24364947 C2.98182107,3.24364947 2.93251306,3.29301582 2.93251306,3.35376094 L2.93251306,4.50511732 C2.93251306,4.56586245 2.98182107,4.61528716 3.0425662,4.61528716 L3.96121215,4.61528716 L3.96121215,6.0457443 C3.96121215,6.0457443 3.75493549,6.1160593 3.18465493,6.1160593 C2.51184872,6.1160593 1.57196238,5.87021952 1.57196238,3.8034849 C1.57196238,1.73628347 2.55065325,1.46430172 3.46947428,1.46430172 C4.26482107,1.46430172 4.60746789,1.6043481 4.82547345,1.67180379 C4.89397947,1.69281075 4.95735045,1.62459648 4.95735045,1.56379301 L5.22005415,0.451357846 C5.22005415,0.4229401 5.21042595,0.388687088 5.17798187,0.365404374 C5.0894609,0.302266793 4.54929029,0 3.18465493,0 C1.61257584,0 0,0.66883822 0,3.88406993 C0,7.09941832 1.84627825,7.57855208 3.40207693,7.57855208 C4.69027033,7.57855208 5.47172916,7.02805305 5.47172916,7.02805305 C5.50393982,7.01025549 5.50744102,6.96526556 5.50744102,6.94460873 L5.50744102,3.35376094 C5.50744102,3.29301582 5.45819136,3.24364947 5.39744624,3.24364947 Z M17.5270975,0.402458315 C17.5270975,0.341188019 17.4785481,0.291763314 17.417803,0.291763314 L16.0918555,0.291763314 C16.0312853,0.291763314 15.9820358,0.341188019 15.9820358,0.402458315 C15.9820358,0.402750079 15.9823858,2.96489878 15.9823858,2.96489878 L13.9155929,2.96489878 L13.9155929,0.402458315 C13.9155929,0.341188019 13.86681,0.291763314 13.8061816,0.291763314 L12.4802924,0.291763314 C12.4199558,0.291763314 12.3707645,0.341188019 12.3707645,0.402458315 L12.3707645,7.34076498 C12.3707645,7.40197691 12.4199558,7.45181008 12.4802924,7.45181008 L13.8061816,7.45181008 C13.86681,7.45181008 13.9155929,7.40197691 13.9155929,7.34076498 L13.9155929,4.3730069 L15.9823858,4.3730069 C15.9823858,4.3730069 15.978768,7.34053157 15.978768,7.34076498 C15.978768,7.40197691 16.0279593,7.45181008 16.0885876,7.45181008 L17.4176863,7.45181008 C17.4784315,7.45181008 17.5269808,7.40197691 17.5270975,7.34076498 L17.5270975,0.402458315 Z M7.89529032,1.33009059 C7.89529032,0.852649109 7.51249685,0.466821301 7.04024874,0.466821301 C6.5684675,0.466821301 6.18538227,0.852649109 6.18538227,1.33009059 C6.18538227,1.80700691 6.5684675,2.19388506 7.04024874,2.19388506 C7.51249685,2.19388506 7.89529032,1.80700691 7.89529032,1.33009059 Z M7.79008048,5.88078138 L7.79008048,2.67803711 C7.79008048,2.61723363 7.74100589,2.56751716 7.68037747,2.56751716 L6.35863129,2.56751716 C6.29800287,2.56751716 6.24373493,2.63007122 6.24373493,2.69087469 L6.24373493,7.27943634 C6.24373493,7.41428931 6.32776277,7.4543776 6.4365321,7.4543776 L7.62739327,7.4543776 C7.75804487,7.4543776 7.79008048,7.39024803 7.79008048,7.27727727 L7.79008048,5.88078138 Z M22.594793,2.56751716 L21.2789987,2.56751716 C21.2186619,2.56751716 21.1695292,2.61723363 21.1695292,2.67844558 L21.1695292,6.08052249 C21.1695292,6.08052249 20.835285,6.32507854 20.3608195,6.32507854 C19.8864124,6.32507854 19.7604874,6.10981552 19.7604874,5.64526998 L19.7604874,2.67844558 C19.7604874,2.61723363 19.7114712,2.56751716 19.651076,2.56751716 L18.3156753,2.56751716 C18.2553972,2.56751716 18.2060308,2.61723363 18.2060308,2.67844558 L18.2060308,5.86992777 C18.2060308,7.24973479 18.9750606,7.58730498 20.0329942,7.58730498 C20.9008734,7.58730498 21.6006386,7.10782116 21.6006386,7.10782116 C21.6006386,7.10782116 21.633958,7.36048819 21.6490129,7.39048144 C21.6641263,7.42035798 21.7033975,7.45052634 21.7458199,7.45052634 L22.5953764,7.44679173 C22.6556547,7.44679173 22.7050211,7.39695857 22.7050211,7.33603839 L22.7046126,2.67844558 C22.7046126,2.61723363 22.6554212,2.56751716 22.594793,2.56751716 Z M25.6263887,6.32770441 C25.1700127,6.31381647 24.8604517,6.10672284 24.8604517,6.10672284 L24.8604517,3.9095117 C24.8604517,3.9095117 25.1658694,3.72231636 25.5405519,3.68882192 C26.0143757,3.64639954 26.4709268,3.78953861 26.4709268,4.9198297 C26.4709268,6.11174118 26.2648835,6.34696076 25.6263887,6.32770441 Z M26.1453773,2.41848446 C25.3980548,2.41848446 24.8897447,2.75191158 24.8897447,2.75191158 L24.8897447,0.402458315 C24.8897447,0.341188019 24.8407869,0.291763314 24.7803334,0.291763314 L23.4506515,0.291763314 C23.3901981,0.291763314 23.3410651,0.341188019 23.3410651,0.402458315 L23.3410651,7.34076498 C23.3410651,7.40197691 23.3901981,7.45181008 23.4508264,7.45181008 L24.3733821,7.45181008 C24.4149291,7.45181008 24.4463812,7.43039467 24.4696055,7.39287391 C24.4925382,7.35558655 24.5256242,7.07298457 24.5256242,7.07298457 C24.5256242,7.07298457 25.0693543,7.5882386 26.0986368,7.5882386 C27.3070038,7.5882386 28,6.97530225 28,4.83661879 C28,2.69793536 26.893225,2.41848446 26.1453773,2.41848446 Z M11.6062863,2.55561321 L10.6116651,2.55561321 C10.6116651,2.55561321 10.610148,1.24191972 10.610148,1.24162795 C10.610148,1.19191149 10.5845311,1.16705326 10.5270537,1.16705326 L9.17163811,1.16705326 C9.11894566,1.16705326 9.09064461,1.19021926 9.09064461,1.24086938 L9.09064461,2.59873583 C9.09064461,2.59873583 8.41141962,2.76270682 8.36549607,2.77595287 C8.31974757,2.78919893 8.28607812,2.83138789 8.28607812,2.88168789 L8.28607812,3.73497888 C8.28607812,3.79636589 8.33509436,3.84584893 8.39572278,3.84584893 L9.09064461,3.84584893 L9.09064461,5.89857893 C9.09064461,7.42327562 10.1601322,7.57306692 10.881838,7.57306692 C11.2115889,7.57306692 11.6060528,7.46715681 11.6711744,7.44311553 C11.7105624,7.42864407 11.7334367,7.38785556 11.7334367,7.34362426 L11.7345454,6.4049633 C11.7345454,6.34375137 11.682845,6.29420996 11.624609,6.29420996 C11.5666648,6.29420996 11.4183907,6.31778443 11.2657402,6.31778443 C10.7772116,6.31778443 10.6116651,6.09061753 10.6116651,5.79657843 C10.6116651,5.50277279 10.6116068,3.84584893 10.6116068,3.84584893 L11.6062863,3.84584893 C11.6669147,3.84584893 11.7159893,3.79636589 11.7159893,3.73497888 L11.7159893,2.66619151 C11.7159893,2.60497956 11.6669147,2.55561321 11.6062863,2.55561321 Z" id="Shape"></path>
        </g>
    </g>
</svg>