<?xml version="1.0" encoding="UTF-8"?>
<svg width="28px" height="27px" viewBox="0 0 28 27" version="1.1" xmlns="http://www.w3.org/2000/svg" xmlns:xlink="http://www.w3.org/1999/xlink">
    <title>github-icon</title>
    <g id="Welcome" stroke="none" stroke-width="1" fill="none" fill-rule="evenodd">
        <g id="github-icon" fill="#FFFFFF" fill-rule="nonzero">
            <path d="M14.0001159,0 C6.26907888,0 0,6.197033 0,13.8417824 C0,19.9574445 4.01145934,25.1459353 9.57413373,26.9762101 C10.2738149,27.1043407 10.5306893,26.6759396 10.5306893,26.310343 C10.5306893,25.9802746 10.5177065,24.8899031 10.5116787,23.7332887 C6.61683296,24.5706078 5.79497414,22.100138 5.79497414,22.100138 C5.15812045,20.5002235 4.24051338,20.074802 4.24051338,20.074802 C2.97028359,19.2157075 4.33626163,19.233357 4.33626163,19.233357 C5.74211552,19.3310021 6.48236805,20.6597565 6.48236805,20.6597565 C7.73103707,22.7758613 9.75751605,22.1640888 10.5564231,21.8104113 C10.6820783,20.9157887 11.0449018,20.3051622 11.4452825,19.9595073 C8.33566552,19.6094973 5.06677708,18.4226266 5.06677708,13.118841 C5.06677708,11.6076322 5.61367831,10.3728559 6.50926103,9.40350936 C6.36389981,9.05487468 5.88469469,7.64704154 6.64488512,5.74043849 C6.64488512,5.74043849 7.82052579,5.36842395 10.4959139,7.15927388 C11.6126683,6.85258539 12.8103333,6.69878272 14.0001159,6.69351081 C15.1898986,6.69878272 16.388491,6.85258539 17.5073317,7.15927388 C20.1794742,5.36842395 21.3534919,5.74043849 21.3534919,5.74043849 C22.1155372,7.64704154 21.6361002,9.05487468 21.4907389,9.40350936 C22.3884082,10.3728559 22.9316,11.6076322 22.9316,13.118841 C22.9316,18.4352334 19.656452,19.60583 16.5389526,19.948505 C17.0411095,20.3780524 17.488553,21.2204141 17.488553,22.5118066 C17.488553,24.3638568 17.4723246,25.8544361 17.4723246,26.310343 C17.4723246,26.6786902 17.7243303,27.1103003 18.4339805,26.9743763 C23.993641,25.1420386 28,19.9553815 28,13.8417824 C28,6.197033 21.7318486,0 14.0001159,0 Z M5.24349867,19.7179113 C5.21266446,19.7866755 5.10323784,19.8073048 5.00354834,19.7600867 C4.90200413,19.7149314 4.8449725,19.6211829 4.87789321,19.5521895 C4.90803189,19.4813622 5.01769034,19.4616499 5.11900269,19.5090972 C5.22077874,19.5542524 5.27873775,19.6489178 5.24349867,19.7179113 Z M5.93214882,20.3254353 C5.86538004,20.3866354 5.73485635,20.3582129 5.64629496,20.2614846 C5.55471971,20.1649854 5.53756386,20.0359379 5.60525998,19.9738208 C5.67411528,19.9126206 5.80069779,19.9412724 5.89250487,20.0377715 C5.98408007,20.1354167 6.00193146,20.2635474 5.93214882,20.3254353 Z M6.40458889,21.1027415 C6.31880957,21.1616495 6.17854875,21.1064089 6.09184206,20.983321 C6.0060627,20.860233 6.0060627,20.712619 6.09369677,20.6534818 C6.18063525,20.5943446 6.31880957,20.6475223 6.40667542,20.7696934 C6.49222294,20.8948443 6.49222294,21.0424581 6.40458889,21.1027415 Z M7.20358616,22.0029719 C7.12684843,22.0866352 6.96340403,22.0641721 6.84377659,21.9500236 C6.72136718,21.8383962 6.68728727,21.6800092 6.76425685,21.596346 C6.84192191,21.5124538 7.00629368,21.5360628 7.12684843,21.6492945 C7.24833053,21.7606927 7.2854243,21.9202257 7.20358616,22.0029719 Z M8.23621259,22.3068795 C8.20236456,22.4152978 8.04494786,22.4645788 7.88637198,22.4185068 C7.72802796,22.3710595 7.62439724,22.244075 7.65639062,22.1345106 C7.68931133,22.0254048 7.84742351,21.9740607 8.00715857,22.0233417 C8.16527076,22.0705599 8.26913334,22.1966276 8.23621259,22.3068795 Z M9.41138483,22.4357892 C9.415326,22.5499378 9.28086109,22.6446032 9.11440282,22.6466663 C8.94701719,22.6503337 8.81162494,22.5579604 8.80977024,22.4456455 C8.80977024,22.3303508 8.94122127,22.2366022 9.1086069,22.2338516 C9.27506521,22.2306426 9.41138483,22.3223282 9.41138483,22.4357892 Z M10.5658598,22.3920362 C10.5857978,22.5034343 10.4701115,22.617812 10.3048124,22.6482975 C10.1422954,22.6776369 9.99183375,22.6088727 9.97120035,22.4983915 C9.95103063,22.3842429 10.0688033,22.2698651 10.2310886,22.2402965 C10.3966195,22.211874 10.5447628,22.2788044 10.5658598,22.3920362 Z" id="Shape"></path>
        </g>
    </g>
</svg>