<?xml version="1.0" encoding="UTF-8"?>
<svg width="28px" height="28px" viewBox="0 0 28 28" version="1.1" xmlns="http://www.w3.org/2000/svg" xmlns:xlink="http://www.w3.org/1999/xlink">
    <title>gmail_icon-icons.com_62758</title>
    <g id="Welcome" stroke="none" stroke-width="1" fill="none" fill-rule="evenodd">
        <g id="gmail_icon-icons.com_62758" transform="translate(0.000000, 0.000000)" fill-rule="nonzero">
            <path d="M13.8743366,28 C6.17830282,28 -0.0332168588,21.7215098 0.000133671353,13.9138583 C0.0337537038,6.17875835 6.27317779,-0.0774083699 14.0138586,0.000723953107 C21.6038557,0.0732753959 27.7986328,6.29595684 27.7372431,14.1259318 C27.6758534,21.8163847 21.5089808,27.9776765 13.8743366,28 Z M13.8687558,1.10009134 C6.94288341,1.07783383 1.16109151,6.72010373 1.09412094,13.8580495 C1.0215695,21.1299365 6.83126581,26.8280152 13.7292338,26.9005666 C20.7555619,26.973118 26.6043244,21.2862011 26.6380092,14.1091891 C26.6768759,6.87636838 20.9732163,1.10009134 13.8687558,1.10009134 Z" id="Shape" fill="#FFFFFF"></path>
            <path d="M21.1852897,7.63536809 C21.9331277,7.55723577 22.6363186,8.15438995 22.6865465,8.91338966 C22.6977083,9.11430135 22.6865465,9.32079391 22.6865465,9.52728648 C22.6195759,9.52728648 22.569348,9.57193352 22.5135392,9.61099969 C21.8996424,10.0518892 21.2913264,10.4871979 20.6774296,10.9280874 C18.6292466,12.3344692 16.5810635,13.7352702 14.5384614,15.1472329 C14.3263879,15.2923357 14.0864101,15.4039534 13.9189837,15.6104459 C13.8241087,15.6271886 13.762719,15.5657989 13.6957485,15.515571 C12.0438079,14.3659096 10.3862865,13.2106674 8.73434596,12.0610061 C8.17067706,11.6703445 7.61258904,11.2796829 7.00427309,10.8611169 C7.00427309,11.0118006 7.00427309,11.1122565 7.00427309,11.2127123 C7.00427309,12.8088441 7.00427309,14.4105567 7.00427309,16.0066884 C7.00427309,17.4186511 7.00985397,18.8306138 7.01543485,20.2425765 C7.01543485,20.2816427 7.00985397,20.3207088 7.00985397,20.359775 C6.08342786,20.5383632 5.29652375,20.0974736 5.09003118,19.2770842 C5.06212678,19.1598857 5.05096502,19.0371064 5.05096502,18.9199079 C5.05096502,15.6439312 5.0565459,12.3623736 5.04535286,9.08639695 C5.03980326,8.25484579 5.78206033,7.5181696 6.55780268,7.63536809 C6.58570708,7.66327249 6.6080306,7.69117689 6.635935,7.71350041 C8.98548557,9.45473504 11.3350361,11.1959697 13.6790058,12.9372043 C13.8185278,13.043241 13.902241,13.0264984 14.0306013,12.9316234 C15.4927919,11.8489327 16.9605634,10.7718228 18.422754,9.69471289 C19.3435993,9.0138455 20.2644445,8.32181636 21.1852897,7.63536809 Z" id="Path" fill="#E65A4D"></path>
            <path d="M7.00985397,20.2481574 C7.00427309,18.8361947 7.00427309,17.424232 6.99869221,16.0122693 C6.99869221,14.4161376 6.99869221,12.8144249 6.99869221,11.2182932 C6.99869221,11.1178373 6.99869221,11.0229624 6.99869221,10.8666977 C7.60142728,11.2852638 8.16509618,11.6759254 8.72876508,12.066587 C10.3807056,13.2162483 12.038227,14.3714905 13.6901676,15.5211518 C13.7571382,15.5657989 13.8185278,15.6271886 13.9134028,15.6160268 C13.9245646,15.7388062 14.0361822,15.7722914 14.1198954,15.8281002 C16.0173946,17.145188 17.9148939,18.4511139 19.8068123,19.7793634 C20.0467902,19.9467898 20.3258342,20.0695692 20.5100032,20.3151279 C20.4541944,20.3876794 20.3760621,20.3709367 20.3035107,20.3709367 C15.905777,20.3709367 11.5080434,20.3653559 7.11030982,20.3653559 C7.14937598,20.3095471 7.18844214,20.2593191 7.2275083,20.2035103 C7.35028767,20.1644442 7.46190527,20.1142163 7.50655231,19.9802751 C7.74094928,19.9467898 7.88047129,19.7793634 8.02557417,19.6175179 C7.82466249,19.7012311 7.63491256,19.7905252 7.49539055,19.9691134 C7.37261119,20.0081795 7.26099358,20.0584075 7.21634654,20.1923486 C7.14937598,20.2035103 7.08240542,20.2258339 7.00985397,20.2481574 Z M10.3528012,18.0158053 C10.3695439,18.0158053 10.3862865,18.0158053 10.40861,18.0158053 C10.4811615,17.9767391 10.5704556,17.9599965 10.5760364,17.8483789 C10.6206835,17.8483789 10.6653305,17.8372171 10.687654,17.7925701 C10.7043967,17.7758274 10.7267202,17.7535039 10.7434628,17.7367613 C10.7881099,17.7367613 10.8327569,17.7255995 10.8550804,17.6809525 C10.8606613,17.6697907 10.8718231,17.6642098 10.877404,17.6530481 C10.8662422,17.658629 10.8606613,17.6697907 10.8494996,17.6753716 C10.8048525,17.6753716 10.7602055,17.6865334 10.737882,17.7311804 C10.7211393,17.747923 10.6988158,17.7702466 10.6820732,17.7869892 C10.6374261,17.7869892 10.5927791,17.798151 10.5704556,17.842798 C10.4923232,17.842798 10.4365144,17.8818642 10.4030291,17.9544156 C10.3862865,17.9767391 10.3695439,17.9934818 10.3528012,18.0158053 C10.3416395,18.0213862 10.3304777,18.0269671 10.3248968,18.0381288 C10.3360586,18.0325479 10.3472203,18.0269671 10.3528012,18.0158053 Z M10.0179484,18.2390405 C10.0625955,18.2390405 10.1072425,18.2278787 10.129566,18.1832317 C10.1742131,18.1776508 10.2188601,18.1720699 10.2132792,18.1162611 C10.2132792,18.1106803 10.2021175,18.0995185 10.1965366,18.0995185 C10.1351469,18.0939376 10.129566,18.1385847 10.1239851,18.1832317 C10.0793381,18.1832317 10.0402719,18.1888126 10.0179484,18.2390405 C9.99562489,18.2557831 9.97888225,18.2725258 9.95655873,18.2892684 C9.91191169,18.2892684 9.86726465,18.3004302 9.84494112,18.3450772 C9.82819848,18.3618199 9.80587496,18.3841434 9.78913232,18.400886 C9.74448528,18.400886 9.69983824,18.4120478 9.67751472,18.4566948 C9.5993824,18.4622757 9.54357359,18.495761 9.51008831,18.5683124 C9.49334567,18.5850551 9.47660303,18.6073786 9.45427951,18.6241212 C9.44869863,18.635283 9.43753687,18.6408639 9.43195599,18.6520256 C9.44311775,18.6464448 9.44869863,18.635283 9.45986039,18.6297021 C9.50450743,18.6297021 9.54915447,18.6185404 9.57147799,18.5738933 C9.63844856,18.5683124 9.67751472,18.5348272 9.6830956,18.4622757 C9.72774264,18.4622757 9.77238968,18.4511139 9.7947132,18.4064669 C9.81145584,18.3897243 9.83377936,18.3674007 9.850522,18.3506581 C9.89516905,18.3506581 9.93981609,18.3394963 9.96213961,18.2948493 C9.98446313,18.2781067 10.0012058,18.261364 10.0179484,18.2390405 Z M9.12500758,18.8529373 C9.08036054,18.8585182 9.03571349,18.8640991 9.04129437,18.9254888 C9.04129437,18.9310696 9.05245613,18.9422314 9.05803701,18.9422314 C9.11384582,18.9422314 9.1194267,18.8975844 9.12500758,18.8529373 C9.1752355,18.8585182 9.21430166,18.8473564 9.24220606,18.8027094 C9.2868531,18.7971285 9.33150014,18.7915476 9.32591926,18.730158 C9.32591926,18.7245771 9.3147575,18.7134153 9.30917662,18.7134153 C9.24778694,18.7078344 9.24220606,18.7524815 9.23662518,18.7971285 C9.18639726,18.7971285 9.1473311,18.8082903 9.12500758,18.8529373 Z M8.39391227,19.3496357 C8.31577995,19.3552165 8.25997114,19.3942827 8.22648586,19.4612533 C8.1874197,19.472415 8.13719178,19.4779959 8.14277266,19.5338047 C8.14277266,19.5393856 8.15393442,19.5505474 8.1595153,19.5505474 C8.2153241,19.5561282 8.22648586,19.5114812 8.23764762,19.4668341 C8.31577995,19.4668341 8.39391227,19.4556724 8.40507403,19.3552165 C8.44972107,19.3552165 8.48878723,19.3440548 8.51669163,19.2994077 C8.59482396,19.2938269 8.65063276,19.2547607 8.68411804,19.1877901 C8.7231842,19.1766284 8.77341212,19.1766284 8.76783124,19.1152387 C8.76783124,19.1096578 8.75666948,19.0984961 8.7510886,19.0984961 C8.68969892,19.0929152 8.68411804,19.1375622 8.67853716,19.1822093 C8.60040484,19.1822093 8.52227251,19.1877901 8.51111075,19.2938269 C8.46088283,19.2994077 8.42181667,19.3105695 8.39391227,19.3496357 Z M8.97030647,19.0566748 C8.96239393,19.030942 8.96239393,18.9966317 8.94656884,18.9880541 C8.93074375,18.9794765 8.89909357,18.9880541 8.88326849,19.0052092 C8.85953085,19.0395196 8.8674434,19.0824075 8.91491866,19.0824075 C8.92283121,19.0909851 8.94656884,19.0738299 8.97030647,19.0566748 Z" id="Shape" fill="#E6E3D6"></path>
            <path d="M21.1852897,7.63536809 C20.2644445,8.32181636 19.3435993,9.00826462 18.4171731,9.69471289 C16.9549825,10.7774037 15.487211,11.8489327 14.0250204,12.9316234 C13.8910793,13.0320793 13.812947,13.043241 13.673425,12.9372043 C11.3294553,11.1903888 8.97990469,9.45473504 6.63035412,7.71350041 C6.60244972,7.69117689 6.5801262,7.66327249 6.5522218,7.63536809 C9.5993824,7.63536809 12.646543,7.62978721 15.6992845,7.62978721 C17.5242323,7.63536809 19.354761,7.63536809 21.1852897,7.63536809 Z" id="Path" fill="#F6F4EC"></path>
            <path d="M20.5100032,20.3039662 C20.3258342,20.0584075 20.0467902,19.9356281 19.8068123,19.7682017 C17.9148939,18.4455331 16.0118138,17.1340262 14.1198954,15.8169385 C14.041763,15.7611297 13.9301454,15.7276444 13.9134028,15.604865 C14.0808292,15.3983725 14.3208071,15.2867549 14.5328805,15.141652 C16.5754827,13.7296893 18.6236657,12.3288884 20.6718487,10.9225065 C20.6718487,14.0645421 20.6718487,17.2065777 20.6774296,20.3486132 C20.6216208,20.3430323 20.565812,20.3207088 20.5100032,20.3039662 Z" id="Path" fill="#B6B5AC"></path>
            <path d="M20.6830105,20.359775 C20.6830105,17.2177394 20.6830105,14.0757039 20.6774296,10.9336683 C21.2913264,10.4927788 21.8996424,10.0574701 22.5135392,9.61658057 C22.5637671,9.5775144 22.6139951,9.53286736 22.6865465,9.53286736 C22.6921274,10.5653302 22.6977083,11.5922122 22.6977083,12.624675 C22.6977083,14.6393728 22.6977083,16.6540705 22.6977083,18.6687683 C22.6977083,18.8082903 22.6977083,18.9478123 22.6921274,19.0873343 C22.6586421,19.7793634 22.3237893,20.1700251 21.6540837,20.2983853 C21.3303926,20.359775 21.0067016,20.3988411 20.6830105,20.359775 Z" id="Path" fill="#B13A30"></path>
            <path d="M7.23308918,20.1979295 C7.19402302,20.2537383 7.15495686,20.3039662 7.1158907,20.359775 C7.07682454,20.359775 7.04333926,20.359775 7.00427309,20.3653559 C7.00427309,20.3262897 7.00985397,20.2872235 7.00985397,20.2481574 C7.08240542,20.2258339 7.14937598,20.2090912 7.22192742,20.1867677 C7.22192742,20.1867677 7.23308918,20.1979295 7.23308918,20.1979295 Z" id="Path" fill="#C1C0B6"></path>
            <path d="M7.50097143,19.9635325 C7.64049344,19.7905252 7.83024337,19.6956502 8.03115505,19.611937 C7.88605217,19.7737826 7.74653016,19.941209 7.51213319,19.9746942 L7.50097143,19.9635325 Z" id="Path" fill="#C1C0B6"></path>
            <path d="M7.51213319,19.9746942 C7.46190527,20.1086354 7.35028767,20.1588633 7.23308918,20.1979295 C7.23308918,20.1979295 7.22192742,20.1867677 7.22192742,20.1867677 C7.26657446,20.0528266 7.38377295,20.0025986 7.50097143,19.9635325 C7.50097143,19.9635325 7.51213319,19.9746942 7.51213319,19.9746942 Z" id="Path" fill="#C1C0B6"></path>
            <path d="M10.5760364,17.8483789 C10.5704556,17.9544156 10.4755806,17.9711583 10.40861,18.0158053 C10.40861,17.9990627 10.40861,17.9767391 10.40861,17.9599965 C10.4420953,17.887445 10.4979041,17.8483789 10.5760364,17.8483789 C10.5760364,17.8483789 10.5760364,17.8483789 10.5760364,17.8483789 Z" id="Path" fill="#C5C3B9"></path>
            <path d="M9.51008831,18.5738933 C9.54357359,18.5013419 9.5993824,18.4622757 9.67751472,18.4622757 L9.6830956,18.4678566 C9.6830956,18.540408 9.64402944,18.5738933 9.57147799,18.5794742 C9.55473535,18.5738933 9.53241183,18.5738933 9.51008831,18.5738933 Z" id="Path" fill="#C3C2B8"></path>
            <path d="M8.68411804,19.193371 C8.65063276,19.2659225 8.59482396,19.2994077 8.51669163,19.3049886 C8.51669163,19.3049886 8.51111075,19.2994077 8.51111075,19.2994077 C8.52227251,19.193371 8.60040484,19.1877901 8.67853716,19.1877901 L8.68411804,19.193371 Z" id="Path" fill="#C1C0B6"></path>
            <path d="M8.22648586,19.4612533 C8.25997114,19.3942827 8.31577995,19.3552165 8.39391227,19.3496357 L8.39949315,19.3607974 C8.38833139,19.4668341 8.31577995,19.472415 8.23206674,19.472415 L8.22648586,19.4612533 Z" id="Path" fill="#C1C0B6"></path>
            <path d="M9.2310443,18.8011434 C9.2372943,18.7514074 9.2497943,18.7016715 9.3122943,18.7078885 C9.3185443,18.7078885 9.3310443,18.7203225 9.3310443,18.7265395 C9.3310443,18.7949264 9.2810443,18.7949264 9.2372943,18.8073604 L9.2310443,18.8011434 Z" id="Path" fill="#C1C0B6"></path>
            <path d="M9.13571349,18.8588998 C9.12946349,18.910415 9.12321349,18.9619302 9.05446349,18.9554908 C9.04821349,18.9554908 9.03571349,18.942612 9.03571349,18.9361726 C9.03571349,18.8588998 9.08571349,18.8588998 9.13571349,18.8588998 C9.13571349,18.8524604 9.13571349,18.8588998 9.13571349,18.8588998 Z" id="Path" fill="#C1C0B6"></path>
            <path d="M8.97158237,19.0551585 C8.95546574,19.0639364 8.93129079,19.0902699 8.91517416,19.0902699 C8.87488258,19.0814921 8.85876594,19.0463806 8.88294089,19.0112692 C8.89099921,18.9937135 8.93129079,18.9849357 8.94740742,18.9937135 C8.95546574,19.0024914 8.96352406,19.0288249 8.97158237,19.0551585 Z" id="Path" fill="#C1C0B6"></path>
            <path d="M8.67295628,19.1906336 C8.67917651,19.1414936 8.69161697,19.0984961 8.75381929,19.0984961 C8.76003952,19.0984961 8.77247998,19.1107811 8.77247998,19.1169236 C8.77870022,19.1844911 8.72271813,19.1844911 8.67917651,19.1967762 C8.68539674,19.2029187 8.67295628,19.1906336 8.67295628,19.1906336 Z" id="Path" fill="#C1C0B6"></path>
            <path d="M8.24234532,19.4731339 C8.23063337,19.522274 8.22477739,19.5652715 8.16036165,19.5652715 C8.15450568,19.5652715 8.14279372,19.5529865 8.14279372,19.546844 C8.13693775,19.4792764 8.18964153,19.4792764 8.23063337,19.4669914 C8.23063337,19.4608489 8.24234532,19.4731339 8.24234532,19.4731339 Z" id="Path" fill="#C1C0B6"></path>
            <path d="M10.129566,18.1990444 C10.135816,18.1460114 10.142066,18.0929784 10.210816,18.0996075 C10.217066,18.0996075 10.229566,18.1128658 10.229566,18.1194949 C10.229566,18.1924153 10.179566,18.1924153 10.129566,18.1990444 L10.129566,18.1990444 Z" id="Path" fill="#C3C2B8"></path>
            <path d="M10.7434628,17.7809525 C10.7657864,17.7009525 10.8104334,17.6809525 10.8550804,17.6809525 L10.8550804,17.6809525 C10.8327569,17.7609525 10.7936908,17.7809525 10.7434628,17.7809525 L10.7434628,17.7809525 Z" id="Path" fill="#C5C3B9"></path>
            <path d="M10.687654,17.7925701 C10.6653305,17.8725701 10.6206835,17.8925701 10.5760364,17.8925701 C10.5760364,17.8925701 10.5704556,17.8825701 10.5704556,17.8825701 C10.59836,17.8125701 10.6374261,17.7925701 10.687654,17.7925701 C10.687654,17.7925701 10.687654,17.7925701 10.687654,17.7925701 Z" id="Path" fill="#C5C3B9"></path>
            <path d="M9.850522,18.390594 C9.87284553,18.3139982 9.91749257,18.2948493 9.96213961,18.2948493 C9.96213961,18.2948493 9.96772049,18.3044238 9.96772049,18.3044238 C9.93981609,18.371445 9.90074993,18.390594 9.850522,18.390594 C9.850522,18.4001685 9.850522,18.390594 9.850522,18.390594 Z" id="Path" fill="#C3C2B8"></path>
            <path d="M9.6830956,18.5064669 C9.70541912,18.4264669 9.75006616,18.4064669 9.7947132,18.4064669 L9.80029408,18.4164669 C9.77238968,18.4964669 9.73332352,18.5064669 9.6830956,18.5064669 C9.6830956,18.5064669 9.6830956,18.5064669 9.6830956,18.5064669 Z" id="Path" fill="#C3C2B8"></path>
            <path d="M9.51008831,18.5738933 C9.53241183,18.5738933 9.55473535,18.5738933 9.57147799,18.5738933 C9.54357359,18.6538933 9.50450743,18.6738933 9.45986039,18.6738933 C9.45986039,18.6738933 9.45427951,18.6638933 9.45427951,18.6638933 C9.47660303,18.6338933 9.49334567,18.6038933 9.51008831,18.5738933 Z" id="Path" fill="#C1C0B6"></path>
            <path d="M9.23662518,18.8006386 C9.21430166,18.8733658 9.16965462,18.8915476 9.12500758,18.8915476 C9.12500758,18.8915476 9.1194267,18.8824567 9.1194267,18.8824567 C9.14175022,18.8097295 9.18639726,18.7915476 9.2310443,18.7915476 C9.2310443,18.7915476 9.23662518,18.8006386 9.23662518,18.8006386 Z" id="Path" fill="#C1C0B6"></path>
            <path d="M8.39391227,19.3824793 C8.41623579,19.3115574 8.46088283,19.2938269 8.50552987,19.2938269 C8.50552987,19.2938269 8.51111075,19.3026921 8.51111075,19.3026921 C8.48878723,19.3736141 8.44414019,19.3913446 8.39949315,19.3913446 C8.40507403,19.4002098 8.39391227,19.3824793 8.39391227,19.3824793 Z" id="Path" fill="#C1C0B6"></path>
            <path d="M10.129566,18.1832317 C10.1072425,18.2632317 10.0681763,18.2832317 10.0179484,18.2832317 L10.0179484,18.2832317 C10.0402719,18.1932317 10.0793381,18.1832317 10.129566,18.1832317 C10.129566,18.1832317 10.129566,18.1832317 10.129566,18.1832317 Z" id="Path" fill="#C3C2B8"></path>
            <path d="M10.8661282,17.7118863 C10.8861282,17.7018863 10.8961282,17.6818863 10.9161282,17.6718863 C10.8961282,17.6818863 10.8861282,17.7018863 10.8661282,17.7118863 C10.8661282,17.7118863 10.8661282,17.7118863 10.8661282,17.7118863 Z" id="Path" fill="#C5C3B9"></path>
            <path d="M10.7820732,17.7367613 C10.7548004,17.7667613 10.7184368,17.8067613 10.6911641,17.8367613 C10.6911641,17.8367613 10.6820732,17.8267613 10.6820732,17.8267613 C10.7184368,17.7967613 10.7457095,17.7667613 10.7820732,17.7367613 C10.7820732,17.7367613 10.7820732,17.7367613 10.7820732,17.7367613 Z" id="Path" fill="#C5C3B9"></path>
            <path d="M10.4528012,17.9599965 C10.4528012,17.9887199 10.4528012,18.0270178 10.4528012,18.0557412 C10.4228012,18.0557412 10.3928012,18.0653156 10.3528012,18.0557412 L10.3528012,18.0557412 C10.3828012,18.0174433 10.4128012,17.9887199 10.4528012,17.9599965 Z" id="Path" fill="#C3C2B8"></path>
            <path d="M10.3859446,18.0290627 C10.3659446,18.0390627 10.3559446,18.0590627 10.3359446,18.0690627 C10.3559446,18.0590627 10.3659446,18.0390627 10.3859446,18.0290627 C10.3859446,18.0290627 10.3859446,18.0290627 10.3859446,18.0290627 Z" id="Path" fill="#C3C2B8"></path>
            <path d="M9.7947132,18.4506581 C9.82198593,18.4206581 9.85834957,18.3806581 9.88562229,18.3506581 C9.88562229,18.3506581 9.8947132,18.3606581 9.8947132,18.3606581 C9.85834957,18.3906581 9.83107684,18.4206581 9.7947132,18.4506581 C9.7947132,18.4506581 9.7947132,18.4506581 9.7947132,18.4506581 Z" id="Path" fill="#C3C2B8"></path>
            <path d="M9.49300379,18.6429595 C9.47300379,18.6529595 9.46300379,18.6729595 9.44300379,18.6829595 C9.46300379,18.6729595 9.47300379,18.6529595 9.49300379,18.6429595 C9.49300379,18.6429595 9.49300379,18.6429595 9.49300379,18.6429595 Z" id="Path" fill="#C1C0B6"></path>
            <path d="M10.0565587,18.2390405 C10.029286,18.2690405 9.99292237,18.3090405 9.96564964,18.3390405 C9.96564964,18.3390405 9.95655873,18.3290405 9.95655873,18.3290405 C9.99292237,18.2990405 10.0201951,18.2690405 10.0565587,18.2390405 C10.0565587,18.2390405 10.0565587,18.2390405 10.0565587,18.2390405 Z" id="Path" fill="#C3C2B8"></path>
        </g>
    </g>
</svg>