<?xml version="1.0" encoding="UTF-8"?>
<svg width="34px" height="26px" viewBox="0 0 34 26" version="1.1" xmlns="http://www.w3.org/2000/svg" xmlns:xlink="http://www.w3.org/1999/xlink">
    <title>google-gmail</title>
    <g id="Welcome" stroke="none" stroke-width="1" fill="none" fill-rule="evenodd">
        <g id="Desktop-HD" transform="translate(-303.000000, -835.000000)" fill-rule="nonzero">
            <g id="google-gmail" transform="translate(303.000000, 835.000000)">
                <path d="M8,26 L8,12.8163265 L3.7821607,9.07573097 L0,7 L0,23.6734694 C0,24.9608164 1.076,26 2.40000001,26 L8,26 Z" id="Path" fill="#4285F4"></path>
                <path d="M26,26 L31.6000001,26 C32.9279999,26 34,24.9569388 34,23.6734694 L34,7 L29.716107,9.37767036 L26,12.8163265 L26,26 Z" id="Path" fill="#34A853"></path>
                <polygon id="Path" fill="#EA4335" points="7.56223924 12.6363636 7 7.20160932 7.56223924 2 16.9666453 9.36363636 26.3710514 2 27 6.92074269 26.3710514 12.6363636 16.9666453 20"></polygon>
                <path d="M26,2.44311524 L26,13 L34,6.90948956 L34,3.66121733 C34,0.64844483 30.612,-1.06907911 28.24,0.737772316 L26,2.44311524 Z" id="Path" fill="#FBBC04"></path>
                <path d="M0,6.90948956 L3.6793357,9.71061862 L8,13 L8,2.44311524 L5.76,0.737772316 C3.384,-1.06907911 0,0.64844483 0,3.66121733 L0,6.90948956 Z" id="Path" fill="#C5221F"></path>
            </g>
        </g>
    </g>
</svg>