<?xml version="1.0" encoding="UTF-8"?>
<svg width="17px" height="17px" viewBox="0 0 17 17" version="1.1" xmlns="http://www.w3.org/2000/svg" xmlns:xlink="http://www.w3.org/1999/xlink">
    <title>edit-svgrepo-com</title>
    <g id="Welcome" stroke="none" stroke-width="1" fill="none" fill-rule="evenodd">
        <g id="edit-svgrepo-com" fill="#D3D3D3" fill-rule="nonzero">
            <path d="M16.4004698,2.82381055 L14.190028,0.618651106 C13.7347326,0.0500250864 12.3410421,-0.428452906 11.2914298,0.618651106 L1.18109155,10.6701562 L1.18109155,10.6701562 C1.0281679,10.8227144 0.955181618,11.0203466 0.96560823,11.2110443 L0.0237375958,16.1275791 C-0.122234975,16.6892706 0.437326546,17.0498627 0.819635659,16.994387 L5.92867563,15.9819553 C6.0746482,15.9819553 6.18238986,15.9091435 6.29013152,15.8016593 L16.4004698,5.75362144 C17.1998434,4.95615812 17.1998434,3.62127387 16.4004698,2.82381055 Z M12.3062867,1.59641048 C12.5252456,1.34330256 12.9596878,1.34330256 13.213402,1.59641048 L13.81467,2.18583989 L3.74603815,12.2304105 L2.69990139,11.176372 L12.3062867,1.59641048 Z M2.12643772,12.6222077 L4.3646838,14.855105 L1.58077835,15.4029276 L2.12643772,12.6222077 Z M15.4238438,4.7030502 L5.80355628,14.3003479 L4.75741953,13.2463094 L14.836478,3.19133712 L15.4203683,3.76343037 C15.7401177,4.10321909 15.5906696,4.53315584 15.4238438,4.7030502 Z" id="Shape"></path>
        </g>
    </g>
</svg>