<?xml version="1.0" encoding="UTF-8"?>
<svg width="470px" height="98px" viewBox="0 0 470 98" version="1.1" xmlns="http://www.w3.org/2000/svg" xmlns:xlink="http://www.w3.org/1999/xlink">
    <title>freepik--Garlands--inject-34</title>
    <g id="Welcome" stroke="none" stroke-width="1" fill="none" fill-rule="evenodd">
        <g id="freepik--Garlands--inject-34" fill-rule="nonzero">
            <path d="M115,38 C115,38 123.698876,89.2311213 129.586472,88.999215 C137.158943,88.6967286 163,46.0360566 163,46.0360566 C163,46.0360566 119.259515,38.8671278 115,38 Z" id="Path" fill="#FF725E"></path>
            <g id="Group" opacity="0.3" transform="translate(115.000000, 38.000000)" fill="#FFFFFF">
                <path d="M0,0 C0,0 8.69887596,51.2311213 14.5864721,50.999215 C22.158943,50.6967286 48,8.03605662 48,8.03605662 C48,8.03605662 4.25951489,0.867127816 0,0 Z" id="Path"></path>
            </g>
            <path d="M133.669858,55 L139.222068,55.2070972 C139.332289,55.2057284 139.441683,55.2268443 139.543935,55.2692263 C139.837785,55.3575733 140.028273,55.6495489 139.996561,55.9630019 C139.99471,56.0573035 139.970542,56.1497168 139.926153,56.2322283 C139.782466,56.501331 139.51023,56.6710663 139.21201,56.6774872 L134.233126,56.5221643 L133.428458,61.3578836 L137.019289,61.4924968 C137.151705,61.4950456 137.282047,61.5268261 137.401507,61.5856905 C137.6645,61.7006302 137.826558,61.9759086 137.803841,62.2691112 C137.802785,62.3511701 137.785681,62.4321689 137.753549,62.507273 C137.614115,62.786817 137.334594,62.9626713 137.029348,62.9628868 L133.207174,62.8179188 L132.472914,67.3429923 L137.401507,67.5293798 C137.528566,67.5325127 137.654275,67.5569965 137.773666,67.6018638 C138.046165,67.7137982 138.217007,67.9943671 138.196116,68.2956394 C138.209755,68.370926 138.209755,68.4481597 138.196116,68.5234463 C138.066716,68.8198187 137.777398,69.0075032 137.461857,68.9997698 L131.70848,68.7823177 C131.568543,68.7825587 131.431804,68.7392449 131.316204,68.6580594 C131.092947,68.478033 130.975187,68.1925527 131.004395,67.9021547 C131.004395,67.8124126 131.674952,63.7395013 133.016065,55.6834207 C133.027362,55.59743 133.051094,55.5136636 133.086474,55.4349041 C133.178843,55.1827875 133.408366,55.0116811 133.669858,55 L133.669858,55 Z" id="Path" fill="#263238"></path>
            <path d="M168,47 C168,47 181.096642,96.7805493 186.999219,95.9906992 C194.65248,94.9908891 217,50.4093527 217,50.4093527 C217,50.4093527 172.352792,47.4599127 168,47 Z" id="Path" fill="#FF725E"></path>
            <path d="M193.294197,74.7075985 L187.714372,74.9983761 C187.589144,75.0076369 187.464187,74.9771194 187.357186,74.9111428 C187.156098,74.739158 187.028276,74.4963583 187,74.2326618 L187,74.2326618 C187,74.0000397 187.321789,70.1488522 187.965368,62.6790991 C187.960598,62.5983985 187.960598,62.517485 187.965368,62.4367844 C188.029383,62.263011 188.16233,62.1236879 188.332507,62.0520355 C188.502684,61.9803832 188.694841,61.9828231 188.863159,62.0587736 C189.091689,62.1561382 189.239982,62.3813823 189.239653,62.6306362 C189.239653,63.1346506 189.143116,64.1911425 189.027272,65.7904192 C188.641125,70.7271765 188.444833,73.3280204 188.438398,73.5929511 L193.178353,73.3409439 C193.29662,73.3214151 193.417271,73.3214151 193.535539,73.3409439 C193.804605,73.4153733 193.990565,73.661671 193.989261,73.9418842 C194.00358,74.0154988 194.00358,74.0911992 193.989261,74.1648137 C193.893059,74.4736249 193.615985,74.6899954 193.294197,74.7075985 L193.294197,74.7075985 Z" id="Path" fill="#263238"></path>
            <path d="M222,51.2137251 C222,51.2137251 239.291309,99.3249935 245.086906,97.9719885 C252.572486,96.2508864 271,50 271,50 C271,50 226.363406,51.263468 222,51.2137251 Z" id="Path" fill="#FF725E"></path>
            <g id="Group" opacity="0.3" transform="translate(222.000000, 50.000000)" fill="#FFFFFF">
                <path d="M0,1.21372513 C0,1.21372513 17.2913094,49.3249935 23.0869057,47.9719885 C30.5724864,46.2508864 49,0 49,0 C49,0 4.36340608,1.26346797 0,1.21372513 Z" id="Path"></path>
            </g>
            <path d="M248.361826,66.0467889 C248.197617,65.7604755 248.001632,65.4944933 247.77776,65.2541223 C247.37868,64.7751718 246.780388,64.5190573 246.166544,64.5643995 C245.781434,64.6350638 245.428554,64.8298632 245.159534,65.1202955 C244.451587,65.9067343 243.973616,66.8804002 243.77993,67.9306589 C243.455193,69.1680866 243.369679,70.4583854 243.528178,71.7292819 C243.638359,72.727209 243.965204,73.6873747 244.484837,74.5396453 C244.841029,75.2352393 245.573017,75.6419188 246.337735,75.5690824 C246.727931,75.474907 247.079838,75.2590601 247.344745,74.9514201 C247.960444,74.2854378 248.4156,73.4817502 248.673999,72.6043035 C248.668324,72.5667803 248.668324,72.5285885 248.673999,72.4910654 C248.748895,72.253306 248.954513,72.0835313 249.197644,72.0587018 C249.313176,72.0277351 249.434565,72.0277351 249.550097,72.0587018 C249.789746,72.1454526 249.95858,72.3662126 249.983112,72.6248922 C250.005629,72.7404263 250.005629,72.8593667 249.983112,72.9749008 C249.768197,73.7704375 249.428083,74.5249229 248.976102,75.2087794 C248.407575,76.1513143 247.47405,76.802494 246.408226,77 L246.025562,77 C245.074227,76.9744883 244.187007,76.5039215 243.618809,75.723498 C242.769206,74.6346271 242.241637,73.3202617 242.098223,71.9351693 C241.967259,70.9721292 241.967259,69.9951967 242.098223,69.0321566 C242.245727,67.5974036 242.714338,66.216619 243.467757,64.9967631 C244.021208,63.9762855 244.986418,63.2569694 246.106123,63.0305381 C246.531273,62.967336 246.96488,63.0025157 247.374956,63.1334819 C248.333435,63.5099664 249.115087,64.2464278 249.560167,65.1923561 C249.619146,65.289333 249.656932,65.3981917 249.670939,65.5114816 C249.705367,65.6290042 249.705367,65.754262 249.670939,65.8717846 C249.581858,66.1094114 249.373648,66.2789014 249.127153,66.3144426 C248.843989,66.3657608 248.554904,66.2646608 248.361826,66.0467889 L248.361826,66.0467889 Z" id="Path" fill="#263238"></path>
            <path d="M273,49.1882393 C273,49.1882393 293.02717,96.6147762 298.764269,94.9575592 C306.158327,92.7579803 322,45 322,45 C322,45 277.377052,48.967277 273,49.1882393 Z" id="Path" fill="#FF725E"></path>
            <path d="M294.190678,69.2239801 C294.013156,68.2521806 293.959221,67.2579847 294.030417,66.2698729 C294.09263,64.8123841 294.467335,63.3917113 295.123961,62.1237576 C295.589432,61.0936751 296.439282,60.3370542 297.452455,60.0506999 C298.334405,59.8716411 299.240641,60.1728858 299.884648,60.8591924 C300.768289,61.7856656 301.381839,62.9797633 301.647516,64.2901028 C301.807777,64.1760847 302.043454,63.9895095 302.345122,63.7407426 C302.620063,63.4785859 302.940878,63.2810502 303.287832,63.1602864 C303.386398,63.1291828 303.490933,63.1291828 303.589499,63.1602864 C303.797132,63.2260432 303.953715,63.4142255 303.994865,63.647455 C304.018221,63.8925326 303.961405,64.138743 303.834604,64.3419293 C303.338574,64.9966606 302.685306,65.4850922 301.949183,65.7516085 C302.016662,66.4018733 302.032433,67.0573699 301.996319,67.710648 C301.951351,69.1880747 301.582679,70.6317327 300.921629,71.9189551 C300.43393,72.9542083 299.565272,73.7092338 298.536572,73.9920128 L298.178342,73.9920128 C297.285193,74.0614419 296.412624,73.6753857 295.812139,72.9451187 C294.960431,71.8997982 294.397893,70.6088131 294.190678,69.2239801 Z M295.491618,68.6746198 C295.653339,69.622277 295.972943,70.528915 296.434328,71.3488642 C296.999954,72.3232014 297.650424,72.7274476 298.366884,72.561603 C298.563073,72.5204853 298.747379,72.4280495 298.904229,72.2921055 C299.53534,71.6931461 299.980322,70.892199 300.176888,70.0013768 C300.542805,68.7759671 300.686923,67.4836275 300.601108,66.1973159 C299.831957,66.3656723 299.034659,66.27909 298.310322,65.948549 C297.294165,65.4741518 296.458278,64.6283103 295.944119,63.5541674 C295.341066,65.1755906 295.18374,66.9558764 295.491618,68.6746198 L295.491618,68.6746198 Z M297.999227,61.5743973 C297.867363,61.6021913 297.744091,61.6663945 297.640997,61.7609725 C297.369477,62.0806672 297.279016,62.5381955 297.40532,62.9529806 C297.426262,63.0555067 297.454634,63.1560254 297.490164,63.253574 C297.744421,63.9193211 298.256259,64.4250592 298.885375,64.6321574 C299.356692,64.844038 299.871292,64.9120788 300.374857,64.8290978 C300.261326,64.3557859 300.109901,63.8944567 299.922356,63.4505145 C299.366157,62.103027 298.725114,61.4707444 297.999227,61.5743973 Z" id="Shape" fill="#263238"></path>
            <path d="M326,44.4942328 C326,44.4942328 350.428062,89.2199561 355.926278,86.9137859 C363.022592,83.9187598 374,35 374,35 C374,35 330.299643,43.8053768 326,44.4942328 Z" id="Path" fill="#FF725E"></path>
            <g id="Group" opacity="0.3" transform="translate(326.000000, 35.000000)" fill="#FFFFFF">
                <path d="M0,9.49423278 C0,9.49423278 24.4280618,54.2199561 29.9262782,51.9137859 C37.0225922,48.9187598 48,0 48,0 C48,0 4.29964328,8.80537677 0,9.49423278 Z" id="Path"></path>
            </g>
            <path d="M357.964826,62.9173657 L357.964826,62.9173657 C358.023222,63.0844311 358.008437,63.2676704 357.923969,63.4237098 C357.839501,63.5797493 357.692859,63.6947185 357.518755,63.7414039 C357.395596,63.7753723 357.265231,63.7753723 357.142072,63.7414039 C356.872761,63.6511414 356.6703,63.4311342 356.606786,63.1597298 C356.606786,63.0757103 356.164019,60.8136446 355.278485,56.3735329 C354.842326,59.4273215 354.495382,61.8412687 354.287215,63.6056799 C354.237651,63.983768 354.207913,64.1873539 354.198001,64.2358268 C354.176721,64.530703 353.98382,64.7872759 353.702366,64.8950573 L353.543763,64.8950573 C353.257356,64.899638 352.991245,64.7509207 352.849874,64.5072747 L349.251564,58.1767224 C349.720765,60.7037729 350.110665,63.0304689 350.421263,65.1568107 L350.421263,65.1568107 C350.482721,65.3225223 350.469205,65.5059783 350.384091,65.6613617 C350.298977,65.8167451 350.1503,65.9293864 349.975191,65.9711543 C349.856097,66.0096152 349.727515,66.0096152 349.608421,65.9711543 C349.333359,65.8924289 349.124243,65.6730401 349.063223,65.3991748 C349.063223,65.3410074 348.508112,62.3647753 347.447453,56.4510895 C347.17981,54.9193479 347.03112,54.0953097 347.011294,53.9789749 C346.996235,53.879339 346.996235,53.7780792 347.011294,53.6784433 C347.067587,53.4352188 347.259395,53.2438792 347.506929,53.1840204 L347.695271,53.1840204 C347.900939,53.1582494 348.102869,53.2531945 348.210731,53.4263845 C348.508112,53.9789749 349.42008,55.6076621 350.936723,58.2736681 L353.048128,62.0448546 L354.52512,51.691057 C354.51693,51.6266748 354.51693,51.561548 354.52512,51.4971657 C354.605659,51.2719649 354.788907,51.0963338 355.020755,51.0221319 C355.374238,50.9338135 355.739665,51.1166617 355.873247,51.4486929 C355.873247,51.6038059 355.932723,51.7880027 355.982286,52.0012832 C357.211461,58.477254 357.875612,62.103022 357.964826,62.9173657 Z" id="Path" fill="#263238"></path>
            <path d="M377,34.17172 C377,34.17172 404.48538,76.5852539 409.783424,73.8754728 C416.616858,70.3716166 424,21 424,21 C424,21 381.227062,33.1493484 377,34.17172 Z" id="Path" fill="#FF725E"></path>
            <path d="M399.378511,41.1192854 L404.10375,39.0749441 C404.195799,39.0387933 404.291755,39.0154487 404.389291,39.0054762 C404.668563,38.9658526 404.934833,39.1446337 405.024849,39.4322076 C405.042822,39.520474 405.042822,39.6118889 405.024849,39.7001553 C405.000364,39.9913277 404.83609,40.2473991 404.591933,40.3749864 L400.345665,42.2009999 L401.423351,46.7561097 L404.527456,45.4064476 C404.64214,45.359398 404.763972,45.3358382 404.886684,45.3369797 C405.149431,45.3324651 405.386013,45.5077057 405.476188,45.7736351 C405.489401,45.8490531 405.489401,45.9264688 405.476188,46.0018868 C405.460159,46.3040037 405.289856,46.5715866 405.03406,46.6965658 L401.764158,48.1256199 L402.823422,52.3532382 L407.014424,50.5470726 C407.119006,50.4972788 407.231706,50.4702956 407.34602,50.4676807 C407.686677,50.466368 407.971214,50.7470237 408,51.1127399 C407.999168,51.4220764 407.829588,51.7019668 407.567083,51.8272669 L402.685257,53.970848 C402.561958,54.0097173 402.430905,54.0097173 402.307606,53.970848 C402.055915,53.9029384 401.854194,53.7005916 401.773369,53.4349527 C401.773369,53.3555608 400.85227,49.524902 399.010071,41.9429762 C398.996643,41.8609091 398.996643,41.7769437 399.010071,41.6948766 C399.012522,41.4400402 399.158292,41.2123122 399.378511,41.1192854 Z" id="Path" fill="#263238"></path>
            <path d="M63,25 C63,25 67.9605448,76.7365052 73.9401162,76.9983092 C81.6501102,77.3003908 111,37.0228469 111,37.0228469 C111,37.0228469 67.2395353,26.2183957 63,25 Z" id="Path" fill="#FF725E"></path>
            <path d="M78.148579,43 C78.2569189,43.0118128 78.3595175,43.057165 78.4434448,43.1303411 C78.6324774,43.2753065 78.7310419,43.5177289 78.7002635,43.7619939 C78.2056498,45.596795 77.8251777,47.0405728 77.5493354,48.0833013 C76.8739974,50.6199389 76.5220608,52.0937955 76.4649899,52.4246612 C76.2557303,53.8884916 76.4649899,54.6705379 77.1973987,54.7908528 C77.7903986,54.8801696 78.3948361,54.8287883 78.966594,54.6404592 C78.8893819,53.8122706 78.9085477,52.9772367 79.0236648,52.1539529 C79.1080715,51.5226994 79.2384512,50.8992312 79.4136487,50.2890731 C79.9653332,48.4442458 80.8499309,47.6220945 82.0579298,47.812593 C82.5187967,47.8759007 82.9417341,48.1148556 83.2469051,48.4843507 C83.6551183,49.0147984 83.8157433,49.710451 83.684448,50.3793092 C83.684448,50.5698077 83.6178654,50.7803586 83.5703064,50.9808833 C83.2625522,52.2838865 82.6323613,53.4775038 81.7440403,54.4399345 C81.4345744,54.821886 81.0644388,55.1441869 80.650183,55.3924269 C80.650183,55.5528467 80.8118837,55.653109 81.0687023,55.693214 C82.4197551,55.8107365 83.7435022,55.2451586 84.6356282,54.1692262 C85.7559207,52.9711066 86.6699915,51.5767355 87.3369801,50.0484435 C86.4848073,49.9184976 85.6946593,49.5038137 85.082683,48.8653477 C84.4782128,48.1661556 84.2210048,47.2079552 84.3883214,46.278579 C84.4924242,45.5798147 84.8817644,44.964219 85.4536433,44.5941714 C85.9439545,44.261622 86.5315011,44.1263675 87.1086969,44.2131745 C87.8090387,44.3053563 88.4456964,44.6878056 88.8778921,45.2759554 C89.3664534,45.9911427 89.5523826,46.8875923 89.3915295,47.7524356 C89.3915295,47.9730127 89.2964114,48.3339572 89.1822698,48.8252427 C89.3071779,48.8150101 89.4311802,48.7949011 89.5532301,48.7650853 C89.9563865,48.6786255 90.3488967,48.5440764 90.7231818,48.3640359 C90.9714678,48.2248841 91.250821,48.1590633 91.531685,48.1735374 C91.6166955,48.1848027 91.6963777,48.2232989 91.7599683,48.283826 C91.9443254,48.42199 92.0338684,48.6618873 91.9882515,48.8954264 C91.9406925,49.2363184 91.6172912,49.5270792 91.0370713,49.7677089 C90.2843383,50.0680118 89.4825182,50.2077401 88.6781443,50.1787845 C88.0085566,51.8964612 87.040819,53.4673787 85.8246036,54.8109052 C84.5390294,56.3970917 82.5870663,57.2020495 80.6216476,56.9565196 L80.4694588,56.9565196 C79.979509,56.8424189 79.5521655,56.5289017 79.2804835,56.0842371 C78.4510327,56.3768949 77.5671624,56.4559668 76.702785,56.3148405 C76.2563067,56.2537218 75.8467041,56.0217871 75.5518569,55.6631352 C74.9587745,54.6798974 74.7861239,53.4787751 75.0762668,52.3544776 C75.2885752,50.9924398 75.6067058,49.6510949 76.027447,48.3439834 C76.5125489,46.7598383 76.8359502,45.6368999 76.9786273,44.9751684 C76.3888955,45.255903 75.9228172,45.4664539 75.5803923,45.6168474 C75.2651241,45.794054 74.9245842,45.9159642 74.5721412,45.9777919 C74.3941069,45.9559829 74.2326396,45.8572816 74.1262575,45.7052333 C74.0198754,45.553185 73.9781174,45.3614233 74.0109449,45.1756931 C74.0701028,44.9117424 74.2475766,44.6947387 74.486535,44.5941714 L74.6957947,44.4939091 C75.7784176,43.8359649 76.9396323,43.3335445 78.148579,43 L78.148579,43 Z M80.2221519,53.948649 C80.4581614,53.801396 80.6727992,53.6190483 80.8594427,53.4072323 C81.6314054,52.5938568 82.1320769,51.5383576 82.286213,50.3993617 C82.286213,50.3392043 82.286213,50.2890731 82.286213,50.2389419 C82.286213,49.7576826 82.1530478,49.4869743 81.7630639,49.4268169 C81.37308,49.3666594 81.1923558,49.6373678 80.9165135,50.158732 C80.5818157,50.8987025 80.3633703,51.691067 80.2697109,52.5048711 C80.2168235,52.9839812 80.2009183,53.466826 80.2221519,53.948649 L80.2221519,53.948649 Z M85.7104619,46.749812 C85.6675047,47.0096142 85.6938485,47.2768874 85.7865563,47.5218321 C86.043375,48.2036161 86.7377366,48.624718 87.8601293,48.8051903 C87.9976114,48.393927 88.1025989,47.9713857 88.1740188,47.5418846 C88.2073199,47.2991755 88.2073199,47.0526786 88.1740188,46.8099694 C88.1313191,46.2631391 87.737542,45.8190099 87.2228385,45.7371623 C86.9639768,45.6869262 86.6969198,45.7147288 86.4523825,45.8173721 C86.0650688,45.9492374 85.7792416,46.2968748 85.7104619,46.7197333 L85.7104619,46.749812 Z" id="Shape" fill="#263238"></path>
            <path d="M470,4.35656219 C470,4.35656219 469.607999,4.5372491 468.843118,4.85847027 L465.44896,6.27385108 L459.922698,8.57259011 L456.394687,10.0281236 L452.340819,11.5740005 L442.779812,15.2178532 L431.306603,19.2331179 C429.250987,19.98598 427.109321,20.6585368 424.891167,21.3712463 L418.045486,23.5796419 C416.879043,23.961092 415.683917,24.3525803 414.469669,24.7239923 L410.77912,25.818152 L403.130314,28.0767383 C378.458881,35.0860462 353.40421,40.5133286 328.10509,44.3285222 C313.763579,46.4064216 298.752797,48.1630999 283.091867,49.347603 C267.430937,50.5321061 251.177224,51.0641287 234.531511,50.9938616 L222.102201,50.833251 L209.864112,50.3614574 L206.833272,50.2409994 L203.811994,50.0502744 L197.807681,49.658786 L191.851174,49.2773359 L185.961593,48.7553515 C182.051141,48.3739013 178.169372,48.1129091 174.335408,47.6511537 L162.95781,46.3361545 C159.209895,45.8844372 155.509785,45.3323383 151.847919,44.8003158 L146.388584,44.0173392 L141.015298,43.1139046 C126.740714,40.8653564 113.288376,37.8940605 100.782579,35.0131081 C88.295903,31.9213543 76.7079621,28.799486 66.267342,25.4969308 L58.6185361,23.0978101 C56.1326742,22.3349098 53.7519834,21.4415134 51.4095366,20.6484987 C46.743765,19.0323546 42.3170186,17.566783 38.2631515,15.9707153 C34.2092843,14.3746476 30.3753204,13.0395721 26.9142357,11.6342294 L17.4583994,7.73942269 C16.0433704,7.14717115 14.6952683,6.61514858 13.4427764,6.06304968 L9.96256967,4.50713461 L4.48411245,2.04778499 L1.13775988,0.532022571 C0.382440295,0.190725073 0,0 0,0 C0,0 0.392001302,0.150572426 1.15688189,0.481831763 L4.53191749,1.94740337 C6.01387363,2.59988389 7.84002604,3.41297499 10.0103747,4.35656219 L13.5001424,5.90243909 C14.7526344,6.44449983 16.1007364,6.96648424 17.5253265,7.54869762 L26.9811628,11.3832754 C30.4518085,12.7685417 34.2666504,14.1337317 38.3396395,15.6796086 C42.4126287,17.2254855 46.8298141,18.6910571 51.4955857,20.3172393 C53.8380325,21.1002159 56.2187233,21.9835742 58.7141462,22.7364363 L66.3629521,25.1255188 C76.8131332,28.4481503 88.4393181,31.5097896 100.868628,34.5915053 C113.403108,37.4523814 126.817202,40.4036009 141.082225,42.6220347 L146.455511,43.5254692 L151.914846,44.2984077 C155.576712,44.8003158 159.267261,45.3825291 163.015176,45.8342464 L174.383213,47.1392075 C178.207616,47.5909247 182.098946,47.8619551 185.999837,48.2333671 L191.889418,48.7553515 L197.836364,49.1368016 L203.840677,49.5182518 L206.852394,49.7089769 L209.883234,49.8294348 L222.121323,50.3012284 L234.550633,50.461839 C251.186785,50.5321061 267.430937,49.9298164 283.082306,48.8256186 C298.733675,47.7214208 313.77314,45.8743991 328.019041,43.8065378 C353.297509,40.0248979 378.335513,34.6446976 402.99646,27.6952882 L410.645266,25.44674 L414.469669,24.3626185 L418.045486,23.2383444 L424.891167,21.0500251 C427.109321,20.3373157 429.250987,19.6647588 431.306603,18.931973 L442.779812,14.9167083 L452.340819,11.3130083 L456.404248,9.78720768 L459.94182,8.35175055 L465.477644,6.11324049 L468.890923,4.73801233 L470,4.35656219 Z" id="Path" fill="#455A64"></path>
        </g>
    </g>
</svg>