<?xml version="1.0" encoding="UTF-8"?>
<svg width="30px" height="30px" viewBox="0 0 30 30" version="1.1" xmlns="http://www.w3.org/2000/svg" xmlns:xlink="http://www.w3.org/1999/xlink">
    <title>telegram</title>
    <g id="Welcome" stroke="none" stroke-width="1" fill="none" fill-rule="evenodd">
        <g id="telegram" transform="translate(1.000000, 1.000000)" fill-rule="nonzero">
            <path d="M14,0 C6.26795313,0 0,6.26795313 0,14 L0,14 C0,21.7320469 6.26795313,28 14,28 L14,28 C21.7320469,28 28,21.7320469 28,14 L28,14 C28,6.26795313 21.7320469,0 14,0 L14,0 Z" id="Path" stroke="#FFFFFF" fill="#40B3E0"></path>
            <path d="M20,8.49612876 L17.6276178,21.4172 C17.6276178,21.4172 17.2958662,22.3133024 16.3834194,21.8831867 L10.9087392,17.3490921 L8.91802181,16.3097298 L5.56688407,15.0910125 C5.56688407,15.0910125 5.05260159,14.8939462 5.00279215,14.4638304 C4.95308647,14.0337147 5.58348722,13.8007774 5.58348722,13.8007774 L18.9050224,8.15557844 C18.9050224,8.15557844 20,7.63589729 20,8.49612876" id="Path" fill="#FFFFFF"></path>
            <path d="M10.6608691,20 C10.6608691,20 10.4918072,19.9847968 10.2811384,19.3433069 C10.0705794,18.7019226 9,15.3261822 9,15.3261822 L17.5120503,10.1275378 C17.5120503,10.1275378 18.0035376,9.84057772 17.9859727,10.1275378 C17.9859727,10.1275378 18.0736873,10.1781095 17.8104337,10.4143923 C17.54718,10.6507807 11.1235939,16.2038494 11.1235939,16.2038494" id="Path" fill="#D2E5F1"></path>
            <path d="M14,17.7814029 L11.4220063,19.9193561 C11.4220063,19.9193561 11.2205156,20.0584703 11,19.9712711 L11.4936584,16" id="Path" fill="#B5CFE4"></path>
        </g>
    </g>
</svg>