<?xml version="1.0" encoding="UTF-8"?>
<svg width="470px" height="107px" viewBox="0 0 470 107" version="1.1" xmlns="http://www.w3.org/2000/svg" xmlns:xlink="http://www.w3.org/1999/xlink">
    <title>Group 18</title>
    <g id="Welcome" stroke="none" stroke-width="1" fill="none" fill-rule="evenodd">
        <g id="Group-18">
            <g id="freepik--Garlands--inject-34" fill-rule="nonzero">
                <path d="M115,38 C115,38 123.698876,89.2311213 129.586472,88.999215 C137.158943,88.6967286 163,46.0360566 163,46.0360566 C163,46.0360566 119.259515,38.8671278 115,38 Z" id="Path" fill="#FF725E"></path>
                <g id="Group" opacity="0.3" transform="translate(115.000000, 38.000000)" fill="#FFFFFF">
                    <path d="M0,0 C0,0 8.69887596,51.2311213 14.5864721,50.999215 C22.158943,50.6967286 48,8.03605662 48,8.03605662 C48,8.03605662 4.25951489,0.867127816 0,0 Z" id="Path"></path>
                </g>
                <path d="M168,47 C168,47 181.096642,96.7805493 186.999219,95.9906992 C194.65248,94.9908891 217,50.4093527 217,50.4093527 C217,50.4093527 172.352792,47.4599127 168,47 Z" id="Path" fill="#FF725E"></path>
                <path d="M222,51.2137251 C222,51.2137251 239.291309,99.3249935 245.086906,97.9719885 C252.572486,96.2508864 271,50 271,50 C271,50 226.363406,51.263468 222,51.2137251 Z" id="Path" fill="#FF725E"></path>
                <g id="Group" opacity="0.3" transform="translate(222.000000, 50.000000)" fill="#FFFFFF">
                    <path d="M0,1.21372513 C0,1.21372513 17.2913094,49.3249935 23.0869057,47.9719885 C30.5724864,46.2508864 49,0 49,0 C49,0 4.36340608,1.26346797 0,1.21372513 Z" id="Path"></path>
                </g>
                <path d="M273,49.1882393 C273,49.1882393 293.02717,96.6147762 298.764269,94.9575592 C306.158327,92.7579803 322,45 322,45 C322,45 277.377052,48.967277 273,49.1882393 Z" id="Path" fill="#FF725E"></path>
                <path d="M326,44.4942328 C326,44.4942328 350.428062,89.2199561 355.926278,86.9137859 C363.022592,83.9187598 374,35 374,35 C374,35 330.299643,43.8053768 326,44.4942328 Z" id="Path" fill="#FF725E"></path>
                <g id="Group" opacity="0.3" transform="translate(326.000000, 35.000000)" fill="#FFFFFF">
                    <path d="M0,9.49423278 C0,9.49423278 24.4280618,54.2199561 29.9262782,51.9137859 C37.0225922,48.9187598 48,0 48,0 C48,0 4.29964328,8.80537677 0,9.49423278 Z" id="Path"></path>
                </g>
                <path d="M377,34.17172 C377,34.17172 404.48538,76.5852539 409.783424,73.8754728 C416.616858,70.3716166 424,21 424,21 C424,21 381.227062,33.1493484 377,34.17172 Z" id="Path" fill="#FF725E"></path>
                <path d="M63,25 C63,25 67.9605448,76.7365052 73.9401162,76.9983092 C81.6501102,77.3003908 111,37.0228469 111,37.0228469 C111,37.0228469 67.2395353,26.2183957 63,25 Z" id="Path" fill="#FF725E"></path>
                <path d="M470,4.35656219 C470,4.35656219 469.607999,4.5372491 468.843118,4.85847027 L465.44896,6.27385108 L459.922698,8.57259011 L456.394687,10.0281236 L452.340819,11.5740005 L442.779812,15.2178532 L431.306603,19.2331179 C429.250987,19.98598 427.109321,20.6585368 424.891167,21.3712463 L418.045486,23.5796419 C416.879043,23.961092 415.683917,24.3525803 414.469669,24.7239923 L410.77912,25.818152 L403.130314,28.0767383 C378.458881,35.0860462 353.40421,40.5133286 328.10509,44.3285222 C313.763579,46.4064216 298.752797,48.1630999 283.091867,49.347603 C267.430937,50.5321061 251.177224,51.0641287 234.531511,50.9938616 L222.102201,50.833251 L209.864112,50.3614574 L206.833272,50.2409994 L203.811994,50.0502744 L197.807681,49.658786 L191.851174,49.2773359 L185.961593,48.7553515 C182.051141,48.3739013 178.169372,48.1129091 174.335408,47.6511537 L162.95781,46.3361545 C159.209895,45.8844372 155.509785,45.3323383 151.847919,44.8003158 L146.388584,44.0173392 L141.015298,43.1139046 C126.740714,40.8653564 113.288376,37.8940605 100.782579,35.0131081 C88.295903,31.9213543 76.7079621,28.799486 66.267342,25.4969308 L58.6185361,23.0978101 C56.1326742,22.3349098 53.7519834,21.4415134 51.4095366,20.6484987 C46.743765,19.0323546 42.3170186,17.566783 38.2631515,15.9707153 C34.2092843,14.3746476 30.3753204,13.0395721 26.9142357,11.6342294 L17.4583994,7.73942269 C16.0433704,7.14717115 14.6952683,6.61514858 13.4427764,6.06304968 L9.96256967,4.50713461 L4.48411245,2.04778499 L1.13775988,0.532022571 C0.382440295,0.190725073 0,0 0,0 C0,0 0.392001302,0.150572426 1.15688189,0.481831763 L4.53191749,1.94740337 C6.01387363,2.59988389 7.84002604,3.41297499 10.0103747,4.35656219 L13.5001424,5.90243909 C14.7526344,6.44449983 16.1007364,6.96648424 17.5253265,7.54869762 L26.9811628,11.3832754 C30.4518085,12.7685417 34.2666504,14.1337317 38.3396395,15.6796086 C42.4126287,17.2254855 46.8298141,18.6910571 51.4955857,20.3172393 C53.8380325,21.1002159 56.2187233,21.9835742 58.7141462,22.7364363 L66.3629521,25.1255188 C76.8131332,28.4481503 88.4393181,31.5097896 100.868628,34.5915053 C113.403108,37.4523814 126.817202,40.4036009 141.082225,42.6220347 L146.455511,43.5254692 L151.914846,44.2984077 C155.576712,44.8003158 159.267261,45.3825291 163.015176,45.8342464 L174.383213,47.1392075 C178.207616,47.5909247 182.098946,47.8619551 185.999837,48.2333671 L191.889418,48.7553515 L197.836364,49.1368016 L203.840677,49.5182518 L206.852394,49.7089769 L209.883234,49.8294348 L222.121323,50.3012284 L234.550633,50.461839 C251.186785,50.5321061 267.430937,49.9298164 283.082306,48.8256186 C298.733675,47.7214208 313.77314,45.8743991 328.019041,43.8065378 C353.297509,40.0248979 378.335513,34.6446976 402.99646,27.6952882 L410.645266,25.44674 L414.469669,24.3626185 L418.045486,23.2383444 L424.891167,21.0500251 C427.109321,20.3373157 429.250987,19.6647588 431.306603,18.931973 L442.779812,14.9167083 L452.340819,11.3130083 L456.404248,9.78720768 L459.94182,8.35175055 L465.477644,6.11324049 L468.890923,4.73801233 L470,4.35656219 Z" id="Path" fill="#455A64"></path>
            </g>
            <text id="!" transform="translate(409.559293, 56.162251) rotate(-21.000000) translate(-409.559293, -56.162251) " font-family="SavoyeLetPlain, Savoye LET" font-size="48" font-weight="normal" fill="#FFFFFF">
                <tspan x="403.231168" y="60.6622507">!</tspan>
            </text>
            <text id="п" transform="translate(83.000000, 51.500000) rotate(17.000000) translate(-83.000000, -51.500000) " font-family="SavoyeLetPlain, Savoye LET" font-size="48" font-weight="normal" fill="#FFFFFF">
                <tspan x="75.21875" y="56">п</tspan>
            </text>
            <text id="р" transform="translate(139.322421, 61.838789) rotate(4.000000) translate(-139.322421, -61.838789) " font-family="SavoyeLetPlain, Savoye LET" font-size="48" font-weight="normal" fill="#FFFFFF">
                <tspan x="131.752109" y="66.3387895">р</tspan>
            </text>
            <text id="и" transform="translate(193.322421, 69.838789) rotate(4.000000) translate(-193.322421, -69.838789) " font-family="SavoyeLetPlain, Savoye LET" font-size="48" font-weight="normal" fill="#FFFFFF">
                <tspan x="186.091952" y="74.3387895">и</tspan>
            </text>
            <text id="в" transform="translate(248.795366, 77.892883) rotate(-1.000000) translate(-248.795366, -77.892883) " font-family="SavoyeLetPlain, Savoye LET" font-size="48" font-weight="normal" fill="#FFFFFF">
                <tspan x="241.318804" y="82.3928831">в</tspan>
            </text>
            <text id="е" transform="translate(299.776477, 68.530363) rotate(-9.000000) translate(-299.776477, -68.530363) " font-family="SavoyeLetPlain, Savoye LET" font-size="48" font-weight="normal" fill="#FFFFFF">
                <tspan x="293.963977" y="73.0303628">е</tspan>
            </text>
            <text id="т" transform="translate(354.996251, 61.626552) rotate(-16.000000) translate(-354.996251, -61.626552) " font-family="SavoyeLetPlain, Savoye LET" font-size="48" font-weight="normal" fill="#FFFFFF">
                <tspan x="343.640783" y="66.1265524">т</tspan>
            </text>
        </g>
    </g>
</svg>